<svg width="327" height="124" viewBox="0 0 327 124" fill="none" xmlns="http://www.w3.org/2000/svg">
<path d="M65.375 14H11V20.875H46.1974H66.25C68.3211 20.875 70 22.5539 70 24.625C70 27.7316 67.4816 30.25 64.375 30.25H46.1974H11V36.5L54.1849 49H76L27.5 36.5H64.125C70.6834 36.5 76 31.1834 76 24.625C76 18.757 71.243 14 65.375 14Z" stroke="#235B9D" stroke-width="1.6"/>
<path d="M172.045 53.4246V36.4623V2L165.987 6.5V27.3753V53.4246" stroke="#235B9D" stroke-width="1.5"/>
<path d="M7.10596 48.6204V21.2564V14.0649L1.10596 14.0625V57.0625L7.10596 48.6204Z" stroke="#235B9D" stroke-width="1.5"/>
<path fill-rule="evenodd" clip-rule="evenodd" d="M0 72.2012H9.18926L25.5217 105.653L41.6575 72.2012H50.8868L26.7776 121.876H24.2583L0 72.2012ZM3.19519 74.1311L25.5161 119.839L47.6999 74.1311H42.9745L25.533 110.29L7.87883 74.1311H3.19519Z" fill="#235B9D"/>
<path d="M180.473 75.1355C177.904 76.4548 175.522 78.2755 173.318 80.5948V58.8519H171.279V86.1094L173.111 83.8441C175.671 80.6773 178.451 78.3551 181.451 76.8144C184.445 75.2777 187.69 74.5206 191.206 74.5206C194.706 74.5206 197.943 75.3748 200.687 77.0624C203.444 78.7574 205.464 81.0209 206.771 83.8822C208.073 86.7302 208.778 91.3146 208.778 97.7516V121.164H204.324V99.5408C204.324 94.1022 204.094 90.3568 203.604 88.4043L203.602 88.3991C202.759 85.1216 201.205 82.548 198.862 80.8035C196.52 79.059 193.506 78.2234 189.912 78.2234C185.741 78.2234 181.995 79.5219 178.708 82.1011C175.441 84.6656 173.272 87.8509 172.229 91.6474L172.227 91.6535C171.571 94.1084 171.269 98.5069 171.269 104.765V121.174H166.815V58.8519H164.776V123.087H173.308V104.765C173.308 98.4918 173.617 94.3184 174.204 92.1225C175.138 88.7252 177.067 85.8837 180.016 83.5692C182.947 81.2687 186.234 80.137 189.912 80.137C193.167 80.137 195.698 80.8898 197.595 82.3026C199.492 83.715 200.853 85.8671 201.62 88.8455C202.047 90.5489 202.286 94.0743 202.286 99.5408V123.078H210.817V97.7516C210.817 91.2527 210.116 86.3457 208.645 83.1277C207.18 79.9229 204.898 77.3641 201.804 75.4616C198.698 73.5516 195.065 72.6071 191.206 72.6071C187.363 72.6071 183.779 73.4383 180.473 75.1355Z" fill="#235B9D"/>
<path fill-rule="evenodd" clip-rule="evenodd" d="M243.305 74.1302C239.756 74.1302 236.491 74.8941 233.499 76.4424C230.499 77.9949 227.731 80.3346 225.202 83.5244L223.368 85.8392V75.3551H218.914V121.159H223.368V104.618C223.368 98.3369 223.67 93.9052 224.325 91.4036L224.328 91.3948C225.371 87.5678 227.539 84.3569 230.807 81.7717C234.093 79.1717 237.84 77.8628 242.01 77.8628C245.614 77.8628 248.637 78.7047 250.99 80.4622C253.346 82.2224 254.88 84.8197 255.672 88.1254C256.183 90.1012 256.423 93.8784 256.423 99.3518V121.149H260.877V97.5481C260.877 91.0891 260.172 86.4668 258.87 83.5853C257.561 80.6907 255.541 78.4002 252.786 76.6924C250.041 74.9908 246.834 74.1302 243.305 74.1302ZM232.521 74.75C235.828 73.0383 239.433 72.2012 243.305 72.2012C247.196 72.2012 250.797 73.1538 253.903 75.0787C256.998 76.9974 259.28 79.5872 260.744 82.8268C262.214 86.0795 262.915 91.0251 262.915 97.5481V123.078H254.384V99.3518C254.384 93.8382 254.135 90.2884 253.69 88.5773L253.688 88.5685L253.686 88.5597C252.969 85.5617 251.629 83.3974 249.726 81.9762C247.818 80.5509 245.277 79.7918 242.01 79.7918C238.332 79.7918 235.046 80.9326 232.115 83.2516C229.166 85.5844 227.237 88.4483 226.303 91.8722C225.716 94.117 225.406 98.3259 225.406 104.618V123.088H216.875V73.4261H225.406V80.2346C227.588 77.9053 229.958 76.0763 232.521 74.75Z" fill="#235B9D"/>
<path fill-rule="evenodd" clip-rule="evenodd" d="M101.774 70.9883V121.856H93.3402V115.244C91.0089 117.524 88.4524 119.321 85.6635 120.622C82.1328 122.268 78.2798 123.087 74.1206 123.087C66.7122 123.087 60.36 120.537 55.1195 115.469C49.8768 110.399 47.252 104.213 47.252 96.9773C47.252 89.7306 49.9057 83.7664 55.1849 78.722C60.4665 73.6754 66.8579 71.1372 74.2938 71.1372C78.5774 71.1372 82.4909 71.9952 86.0021 73.7384C89.1315 75.2921 91.9029 77.5262 94.314 80.4256L99.9591 72.7021L101.774 70.9883ZM74.2938 73.0606C67.4092 73.0606 61.5376 75.3884 56.6339 80.0739C51.7279 84.7616 49.289 90.2414 49.289 96.9773C49.289 103.725 51.716 109.425 56.5771 114.125C61.4404 118.828 67.2697 121.163 74.1206 121.163C77.9874 121.163 81.529 120.405 84.7613 118.897C87.9969 117.388 90.9322 115.134 93.5727 112.108L95.3772 110.041V119.932H99.7365V76.3929L94.3643 83.7429L93.5207 82.6317C91.0744 79.4092 88.2466 77.0258 85.0541 75.4408C81.8634 73.8567 78.2806 73.0606 74.2938 73.0606ZM64.341 79.672C67.5552 77.9119 71.0626 77.0323 74.8438 77.0323H75.8623V77.0617C81.3004 77.2752 85.9479 79.2141 89.7494 82.8796C93.7881 86.7641 95.805 91.6175 95.805 97.3524C95.805 101.117 94.9123 104.523 93.1085 107.564C91.3015 110.611 88.7189 113.014 85.3869 114.788L85.3847 114.79C82.0593 116.551 78.4967 117.442 74.803 117.442C71.1048 117.442 67.6269 116.539 64.4071 114.751C61.1786 112.958 58.6093 110.447 56.7024 107.248C54.7976 104.053 53.8418 100.718 53.8418 97.1697C53.8418 93.6233 54.7964 90.2594 56.6817 87.0915C58.569 83.9201 61.1199 81.436 64.341 79.672ZM74.1931 78.9652C71.0139 79.0597 68.0759 79.8501 65.3631 81.3358C62.473 82.9184 60.1758 85.1465 58.4576 88.0337C56.7373 90.9243 55.8789 93.9651 55.8789 97.1697C55.8789 100.372 56.736 103.384 58.4776 106.305C60.217 109.223 62.5366 111.481 65.4396 113.093C68.3513 114.71 71.4734 115.518 74.803 115.518C78.137 115.518 81.3574 114.717 84.3874 113.113C87.4103 111.502 89.7162 109.347 91.3312 106.624C92.9495 103.896 93.768 100.819 93.768 97.3524C93.768 92.0862 91.9352 87.7271 88.2949 84.2261L88.2939 84.2252C84.6509 80.7126 80.1897 78.9652 74.8438 78.9652H74.1931Z" fill="#BE1E2D"/>
<path fill-rule="evenodd" clip-rule="evenodd" d="M158.719 70.9883V121.856H150.473V115.244C148.193 117.524 145.694 119.321 142.967 120.622C139.514 122.268 135.747 123.087 131.68 123.087C124.437 123.087 118.225 120.537 113.101 115.469C107.975 110.399 105.409 104.213 105.409 96.9773C105.409 89.7306 108.003 83.7664 113.165 78.722C118.33 73.6754 124.579 71.1372 131.85 71.1372C136.038 71.1372 139.865 71.9952 143.298 73.7384C146.358 75.2921 149.067 77.5262 151.425 80.4256L156.945 72.7021L158.719 70.9883ZM131.85 73.0606C125.118 73.0606 119.377 75.3884 114.582 80.0739C109.785 84.7616 107.4 90.2414 107.4 96.9773C107.4 103.725 109.774 109.425 114.527 114.125C119.282 118.828 124.982 121.163 131.68 121.163C135.461 121.163 138.924 120.405 142.084 118.897C145.248 117.388 148.118 115.134 150.7 112.108L152.465 110.041V119.932H156.727V76.3929L151.474 83.743L150.649 82.6317C148.257 79.4092 145.492 77.0258 142.371 75.4408C139.251 73.8567 135.748 73.0606 131.85 73.0606ZM122.118 79.672C125.261 77.9119 128.69 77.0323 132.387 77.0323H133.383V77.0617C138.701 77.2752 143.245 79.2141 146.962 82.8796C150.911 86.7641 152.883 91.6175 152.883 97.3524C152.883 101.117 152.01 104.523 150.246 107.564C148.479 110.611 145.954 113.014 142.696 114.788L142.694 114.79C139.443 116.551 135.959 117.442 132.348 117.442C128.732 117.442 125.331 116.539 122.183 114.751C119.026 112.958 116.514 110.447 114.649 107.248C112.787 104.053 111.852 100.718 111.852 97.1697C111.852 93.6233 112.785 90.2594 114.629 87.0915C116.474 83.9201 118.969 81.436 122.118 79.672ZM131.751 78.9652C128.643 79.0597 125.77 79.8501 123.117 81.3358C120.292 82.9184 118.045 85.1465 116.365 88.0337C114.683 90.9243 113.844 93.9651 113.844 97.1697C113.844 100.372 114.682 103.384 116.385 106.305C118.086 109.223 120.354 111.481 123.192 113.093C126.039 114.71 129.092 115.518 132.348 115.518C135.607 115.518 138.756 114.717 141.719 113.113C144.675 111.502 146.929 109.347 148.508 106.624C150.091 103.896 150.891 100.819 150.891 97.3524C150.891 92.0862 149.099 87.7271 145.54 84.2261L145.539 84.2252C141.977 80.7126 137.614 78.9652 132.387 78.9652H131.751Z" fill="#BE1E2D"/>
<path fill-rule="evenodd" clip-rule="evenodd" d="M321.072 70.9883V121.856H312.639V115.244C310.307 117.524 307.751 119.321 304.962 120.621C301.431 122.268 297.578 123.087 293.419 123.087C286.011 123.087 279.658 120.536 274.418 115.469C269.175 110.399 266.55 104.212 266.55 96.9761C266.55 89.729 269.204 83.7645 274.483 78.7199C279.765 73.6731 286.156 71.1347 293.592 71.1347C297.876 71.1347 301.789 71.9927 305.3 73.7361C308.43 75.2898 311.201 77.524 313.612 80.4235L319.258 72.6994L321.072 70.9883ZM293.592 73.0581C286.708 73.0581 280.836 75.3861 275.932 80.0718C271.026 84.7598 268.587 90.2398 268.587 96.9761C268.587 103.724 271.014 109.424 275.875 114.125C280.739 118.828 286.568 121.163 293.419 121.163C297.286 121.163 300.827 120.405 304.06 118.897C307.295 117.388 310.231 115.133 312.871 112.108L314.676 110.04V119.932H319.035V76.3906L313.663 83.7411L312.819 82.6297C310.373 79.4071 307.545 77.0236 304.352 75.4385C301.162 73.8543 297.579 73.0581 293.592 73.0581ZM283.639 79.6699C286.854 77.9097 290.361 77.03 294.142 77.03H295.161V77.0595C300.599 77.273 305.246 79.212 309.048 82.8776C313.086 86.7624 315.103 91.616 315.103 97.3511C315.103 101.116 314.211 104.522 312.407 107.563C310.6 110.61 308.017 113.013 304.685 114.788L304.683 114.789C301.358 116.55 297.795 117.441 294.101 117.441C290.403 117.441 286.925 116.538 283.705 114.751C280.477 112.958 277.908 110.446 276.001 107.248C274.096 104.053 273.14 100.717 273.14 97.1684C273.14 93.6219 274.095 90.2578 275.98 87.0897C277.867 83.9182 280.418 81.434 283.639 79.6699ZM293.491 78.9631C290.312 79.0576 287.374 79.8481 284.661 81.3338C281.771 82.9165 279.474 85.1447 277.756 88.032C276.036 90.9228 275.177 93.9637 275.177 97.1684C275.177 100.371 276.034 103.383 277.776 106.304C279.515 109.222 281.835 111.481 284.738 113.093C287.65 114.709 290.772 115.518 294.101 115.518C297.435 115.518 300.656 114.717 303.686 113.112C306.709 111.502 309.014 109.347 310.629 106.623C312.248 103.895 313.066 100.818 313.066 97.3511C313.066 92.0847 311.234 87.7254 307.593 84.2242L307.592 84.2234C303.949 80.7106 299.488 78.9631 294.142 78.9631H293.491Z" fill="#BE1E2D"/>
<path d="M166.8 54.0273H10.2916L6.35156 58.8737H166.8M171.27 54.0273H325L321.06 58.8737H171.27" stroke="#235B9D" stroke-width="1.5"/>
<path d="M158.9 25.0996V49.9004H154.1V25.0996H158.9Z" stroke="#235B9D" stroke-width="1.8"/>
<path d="M155.988 16.2002C156.737 16.2003 157.424 16.4764 157.956 17.0186H157.957L157.981 17.043H157.98C158.523 17.5754 158.8 18.263 158.8 19.0117C158.8 19.6858 158.569 20.2926 158.156 20.7881L157.969 20.9932C157.424 21.5377 156.729 21.7997 155.988 21.7998C155.314 21.7998 154.707 21.5686 154.212 21.1562L154.007 20.9688L153.991 20.9531L153.983 20.9443L153.977 20.9375C153.486 20.4159 153.2 19.7558 153.2 19.0117C153.2 18.2699 153.473 17.5977 153.977 17.0625L153.983 17.0557L153.991 17.0469L154.007 17.0312L154.212 16.8438C154.707 16.4314 155.314 16.2002 155.988 16.2002Z" stroke="#235B9D" stroke-width="1.6"/>
<path d="M135.438 24.7002C139.024 24.7002 141.991 26.1665 144.301 29.0244L146.44 26.9287L147.8 25.5957V49.5322H143.413V46.9033C141.077 49.1403 138.388 50.2998 135.354 50.2998C132.018 50.2998 129.137 49.0223 126.748 46.5137L126.741 46.5068C124.384 43.9698 123.2 40.9324 123.2 37.4365C123.2 33.9652 124.4 30.9667 126.789 28.4863L127.243 28.0303C129.543 25.8215 132.286 24.7002 135.438 24.7002ZM135.646 29.1133C133.406 29.1133 131.539 29.9405 129.997 31.625L129.993 31.6289C128.439 33.3005 127.67 35.2522 127.67 37.5215C127.67 39.8472 128.452 41.8392 130.03 43.5371L130.328 43.8389C131.838 45.3007 133.599 46.0146 135.646 46.0146C137.807 46.0146 139.654 45.2256 141.229 43.6123C142.789 42.0132 143.58 40.0035 143.58 37.5215C143.58 35.1284 142.805 33.1563 141.266 31.5527L141.261 31.5488C139.719 29.9167 137.863 29.1133 135.646 29.1133Z" stroke="#235B9D" stroke-width="1.6"/>
<path d="M92.416 24.7002C95.8606 24.7002 98.781 25.8694 101.121 28.2139L101.342 28.4385C103.584 30.7794 104.715 33.9003 104.8 37.7168L104.818 38.5342H84.79C84.9969 40.7063 85.754 42.4379 87.0264 43.7803L87.3057 44.0527C88.7204 45.3671 90.3838 46.0146 92.332 46.0146C94.088 46.0146 95.5859 45.5972 96.8545 44.7871C98.1263 43.975 99.2142 42.7386 100.101 41.0322L100.471 40.3184L101.183 40.6924L103.616 41.9707L104.327 42.3447L103.951 43.0537C102.698 45.4224 101.122 47.2429 99.2061 48.4688C97.2862 49.6971 95.0691 50.2998 92.584 50.2998C89.0179 50.2998 86.0317 49.0527 83.6895 46.5518L83.6865 46.5479C81.3647 44.0384 80.2002 41.0293 80.2002 37.5635C80.2003 34.045 81.3623 31.0072 83.6865 28.4951L83.6904 28.4912L84.1396 28.0332C86.4189 25.8178 89.1911 24.7002 92.416 24.7002ZM92.458 29.1133C90.5136 29.1133 88.9704 29.6426 87.7676 30.6523C86.7512 31.5057 85.9291 32.7456 85.3271 34.4189H99.8008C99.3885 33.0033 98.6649 31.868 97.6357 30.9863L97.3799 30.7773C95.9578 29.6683 94.3276 29.1133 92.458 29.1133Z" stroke="#235B9D" stroke-width="1.6"/>
<path fill-rule="evenodd" clip-rule="evenodd" d="M110.607 11.5H115.707V21.6026H121V26.1901H115.707V49.5H110.607V26.1901H106V21.6026H110.607V11.5Z" stroke="#235B9D" stroke-width="1.6"/>
</svg>
