<svg width="395" height="115" viewBox="0 0 395 115" fill="none" xmlns="http://www.w3.org/2000/svg">
<path fill-rule="evenodd" clip-rule="evenodd" d="M17.4453 0.37915L28.071 6.26199L28.1285 24.7002L25.6285 24.708L25.5756 7.738L19.9453 4.62084V24.7041H17.4453V0.37915ZM25.5733 28.9644L28.0733 28.9602L28.124 59.5796L52.7475 38.3558H68.0132L35.0635 66.862L67.9121 96.4647H52.7303L28.1285 74.1996V96.4647H17.4453V28.9623H19.9453V93.9647H25.6285V68.5653L53.6936 93.9647H61.4036L31.2866 66.8238L61.3025 40.8558H53.6763L25.633 65.0272L25.5733 28.9644Z" fill="#235B9D"/>
<path fill-rule="evenodd" clip-rule="evenodd" d="M122.782 36.5093V95.3428H113.522V88.1596C107.69 94.1128 100.935 97.1589 93.2822 97.1589C85.3988 97.1589 78.5893 94.222 72.9152 88.4078L72.9098 88.4023L72.9046 88.3968C67.3022 82.5143 64.4883 75.4795 64.4883 67.3561C64.4883 59.2925 67.3417 52.3527 73.0187 46.6043C78.6947 40.7894 85.5379 37.8559 93.484 37.8559C102.091 37.8559 109.193 41.3322 114.719 48.1826L122.782 36.5093ZM93.484 40.3559C86.23 40.3559 80.0252 43.0042 74.8052 48.3531L74.7999 48.3585C69.5822 53.6407 66.9883 59.9506 66.9883 67.3561C66.9883 74.835 69.5536 81.2507 74.7097 86.6672C79.9309 92.0148 86.1012 94.6589 93.2822 94.6589C101.055 94.6589 107.886 91.2094 113.813 84.1104L116.022 81.4638V92.8428H120.282V44.5276L114.8 52.464L113.763 51.0419C108.534 43.8767 101.803 40.3559 93.484 40.3559ZM77.9463 51.464C82.2845 46.843 87.6578 44.5149 93.9884 44.5149C100.243 44.5149 105.577 46.7688 109.916 51.2482C114.258 55.6633 116.426 61.1276 116.426 67.5578C116.426 74.1856 114.227 79.7584 109.805 84.1811C105.405 88.5806 100.112 90.8026 93.9884 90.8026C87.7891 90.8026 82.4568 88.5064 78.0575 83.9652L78.0508 83.9582C73.6611 79.3561 71.4499 73.8688 71.4499 67.5578C71.4499 61.3807 73.6279 55.9963 77.9463 51.464ZM93.9884 47.0149C88.348 47.0149 83.633 49.0576 79.7659 53.1783L79.7593 53.1854C75.8738 57.2619 73.9499 62.0329 73.9499 67.5578C73.9499 73.218 75.9079 78.0879 79.8565 82.2291C83.797 86.2952 88.4857 88.3026 93.9884 88.3026C99.4343 88.3026 104.096 86.3543 108.037 82.4133C111.955 78.4955 113.926 73.5754 113.926 67.5578C113.926 61.7481 111.992 56.9225 108.131 52.9978L108.123 52.9907C104.257 48.9973 99.5703 47.0149 93.9884 47.0149Z" fill="#BE1E2D"/>
<path fill-rule="evenodd" clip-rule="evenodd" d="M184.478 36.5662V95.3997H175.218V88.2165C169.385 94.1697 162.63 97.2158 154.977 97.2158C147.094 97.2158 140.285 94.2789 134.61 88.4647L134.605 88.4592L134.6 88.4537C128.998 82.5712 126.184 75.5363 126.184 67.4129C126.184 59.3494 129.037 52.4096 134.714 46.6612C140.39 40.8463 147.233 37.9128 155.179 37.9128C163.786 37.9128 170.888 41.3891 176.415 48.2394L184.478 36.5662ZM155.179 40.4128C147.925 40.4128 141.721 43.0611 136.501 48.41L136.495 48.4154C131.278 53.6975 128.684 60.0075 128.684 67.4129C128.684 74.8919 131.249 81.3076 136.405 86.724C141.626 92.0717 147.797 94.7158 154.977 94.7158C162.75 94.7158 169.582 91.2663 175.508 84.1673L177.718 81.5207V92.8997H181.978V44.5844L176.496 52.5209L175.458 51.0988C170.229 43.9336 163.498 40.4128 155.179 40.4128ZM139.642 51.5209C143.98 46.8999 149.353 44.5718 155.684 44.5718C161.938 44.5718 167.273 46.8257 171.612 51.3051C175.954 55.7202 178.121 61.1845 178.121 67.6147C178.121 74.2425 175.923 79.8152 171.5 84.238C167.1 88.6375 161.807 90.8595 155.684 90.8595C149.484 90.8595 144.152 88.5633 139.753 84.0221L139.746 84.0151C135.356 79.413 133.145 73.9257 133.145 67.6147C133.145 61.4376 135.323 56.0532 139.642 51.5209ZM155.684 47.0718C150.043 47.0718 145.328 49.1145 141.461 53.2352L141.455 53.2423C137.569 57.3188 135.645 62.0898 135.645 67.6147C135.645 73.2748 137.603 78.1448 141.552 82.286C145.492 86.3521 150.181 88.3595 155.684 88.3595C161.13 88.3595 165.791 86.4112 169.732 82.4702C173.65 78.5524 175.621 73.6323 175.621 67.6147C175.621 61.805 173.687 56.9794 169.826 53.0547L169.819 53.0476C165.952 49.0542 161.266 47.0718 155.684 47.0718Z" fill="#BE1E2D"/>
<path fill-rule="evenodd" clip-rule="evenodd" d="M338.06 36.5662V95.3997H328.8V88.2165C322.968 94.1697 316.212 97.2158 308.56 97.2158C300.676 97.2158 293.867 94.2789 288.192 88.4647L288.187 88.4592L288.182 88.4537C282.58 82.5712 279.766 75.5363 279.766 67.4129C279.766 59.3494 282.619 52.4096 288.296 46.6612C293.972 40.8463 300.815 37.9128 308.761 37.9128C317.368 37.9128 324.47 41.3891 329.997 48.2394L338.06 36.5662ZM308.761 40.4128C301.507 40.4128 295.303 43.0611 290.083 48.41L290.077 48.4154C284.86 53.6975 282.266 60.0075 282.266 67.4129C282.266 74.8919 284.831 81.3076 289.987 86.724C295.208 92.0717 301.379 94.7158 308.56 94.7158C316.332 94.7158 323.164 91.2663 329.09 84.1673L331.3 81.5207V92.8997H335.56V44.5844L330.078 52.5209L329.04 51.0988C323.811 43.9336 317.08 40.4128 308.761 40.4128ZM293.224 51.5209C297.562 46.8999 302.935 44.5718 309.266 44.5718C315.52 44.5718 320.855 46.8257 325.194 51.3051C329.536 55.7202 331.703 61.1845 331.703 67.6147C331.703 74.2425 329.505 79.8152 325.082 84.238C320.682 88.6375 315.389 90.8595 309.266 90.8595C303.066 90.8595 297.734 88.5633 293.335 84.0221L293.328 84.0151C288.938 79.413 286.727 73.9257 286.727 67.6147C286.727 61.4376 288.905 56.0532 293.224 51.5209ZM309.266 47.0718C303.625 47.0718 298.91 49.1145 295.043 53.2352L295.037 53.2423C291.151 57.3188 289.227 62.0898 289.227 67.6147C289.227 73.2748 291.185 78.1448 295.134 82.286C299.074 86.3521 303.763 88.3595 309.266 88.3595C314.712 88.3595 319.373 86.4112 323.314 82.4702C327.232 78.5524 329.203 73.6323 329.203 67.6147C329.203 61.805 327.269 56.9794 323.408 53.0547L323.401 53.0476C319.534 49.0542 314.848 47.0718 309.266 47.0718Z" fill="#BE1E2D"/>
<path fill-rule="evenodd" clip-rule="evenodd" d="M343.523 37.8559H352.985V46.6287C358.26 40.8316 364.545 37.8559 371.813 37.8559C376.09 37.8559 379.968 39.0362 383.41 41.4003C386.847 43.6934 389.3 46.7566 390.738 50.5662C392.166 54.2803 392.838 59.6427 392.838 66.5489V97.0252H383.477V68.5668C383.477 62.2946 383.168 58.2185 382.613 56.1831L382.609 56.166L382.604 56.1487C382.101 54.0743 381.296 52.3602 380.212 50.9746L380.201 50.961L380.191 50.9472C379.18 49.5799 377.874 48.5375 376.249 47.8152C374.624 47.0928 372.684 46.7122 370.4 46.7122C367.844 46.7122 365.416 47.3025 363.102 48.4911C360.783 49.6818 358.807 51.3419 357.167 53.4858C355.506 55.6579 354.414 57.8597 353.856 60.0922C353.294 62.3402 352.985 67.0627 352.985 74.4186V97.0252H343.523V37.8559ZM346.023 40.3559V94.5252H350.485V74.4186C350.485 67.1113 350.782 62.0807 351.43 59.4859C352.083 56.8755 353.345 54.3689 355.181 51.9672C357.04 49.5373 359.301 47.6324 361.96 46.2672C364.622 44.8999 367.441 44.2122 370.4 44.2122C372.959 44.2122 375.257 44.6387 377.264 45.5306C379.266 46.4202 380.916 47.7273 382.191 49.4473C383.519 51.149 384.458 53.1912 385.03 55.5427C385.682 57.9504 385.977 62.3431 385.977 68.5668V94.5252H390.338V66.5489C390.338 59.7358 389.665 54.741 388.403 51.46L388.401 51.4526C387.149 48.1369 385.031 45.4858 382.016 43.4754L382.009 43.4705L382.001 43.4654C378.988 41.3935 375.604 40.3559 371.813 40.3559C364.404 40.3559 358.058 43.778 352.734 50.8547L350.485 53.8441V40.3559H346.023Z" fill="#235B9D"/>
<path fill-rule="evenodd" clip-rule="evenodd" d="M207.699 42.3971C205.829 43.7616 203.818 45.9538 201.679 49.046L199.401 52.3384V41.8239H193.707V92.8437H199.401V75.9514C199.401 67.0268 199.901 60.7072 200.975 57.1487C202.037 53.564 203.688 50.5865 205.962 48.2662L205.97 48.2581L205.978 48.2501C208.332 45.9343 210.932 44.6658 213.761 44.6658C214.864 44.6658 215.936 44.8688 216.971 45.2662L219.68 41.5086C217.777 40.7657 216.041 40.4128 214.464 40.4128C211.805 40.4128 209.569 41.0883 207.699 42.3971ZM206.254 40.357C208.597 38.7135 211.352 37.9128 214.464 37.9128C216.879 37.9128 219.442 38.5807 222.135 39.8456L223.499 40.486L217.774 48.4282L216.816 47.9335C215.813 47.4152 214.799 47.1658 213.761 47.1658C211.755 47.1658 209.754 48.0451 207.74 50.0241C205.804 52.0025 204.337 54.5983 203.371 57.8615L203.369 57.8681C202.415 61.0295 201.901 67.0052 201.901 75.9514V95.3437H191.207V39.3239H201.901V44.5941C203.355 42.8323 204.798 41.4173 206.236 40.3699L206.245 40.3634L206.254 40.357Z" fill="#235B9D"/>
<path fill-rule="evenodd" clip-rule="evenodd" d="M225.297 38.4733H236.454L253.03 78.5117L269.534 38.4733H280.693L247.089 114.918H237.1L247.935 90.0606L225.297 38.4733ZM229.124 40.9733L250.664 90.0572L240.917 112.418H245.457L276.863 40.9733H271.207L253.035 85.0595L234.783 40.9733H229.124Z" fill="#235B9D"/>
<path fill-rule="evenodd" clip-rule="evenodd" d="M7.16794 22.2173H19.2559V24.7173H8.45364L5.43149 28.9436H19.2559V31.4436H0.570312L7.16794 22.2173ZM389.57 24.7173H26.5427V22.2173H394.431L387.834 31.4436H26.5427V28.9436H386.548L389.57 24.7173Z" fill="#235B9D"/>
</svg>
