<svg width="327" height="105" viewBox="0 0 327 105" fill="none" xmlns="http://www.w3.org/2000/svg">
<path d="M172.046 34.9246V17.9623V1L165.988 2.81739V8.87535V34.9246" stroke="#235B9D" stroke-width="1.5"/>
<path d="M6.95726 31.5604V8.87502V2.91309L1.21167 1.60547V38.559L6.95726 31.5604Z" stroke="#235B9D" stroke-width="1.5"/>
<path d="M161.142 7.13594V4.0293L86.6287 22.0478L12.1158 4.0293V10.2426L86.6287 28.2611L161.142 10.2426V7.13594Z" stroke="#235B9D" stroke-width="1.5"/>
<path fill-rule="evenodd" clip-rule="evenodd" d="M0 53.7031H9.18926L25.5217 87.1551L41.6575 53.7031H50.8868L26.7776 103.378H24.2583L0 53.7031ZM3.19519 55.633L25.5161 101.341L47.6999 55.633H42.9745L25.533 91.792L7.87883 55.633H3.19519Z" fill="#235B9D"/>
<path d="M180.473 56.6375C177.904 57.9568 175.522 59.7774 173.318 62.0968V40.3538H171.279V67.6114L173.111 65.346C175.671 62.1792 178.451 59.857 181.451 58.3164C184.445 56.7797 187.69 56.0226 191.206 56.0226C194.706 56.0226 197.943 56.8768 200.687 58.5643C203.444 60.2594 205.464 62.5228 206.771 65.3841C208.073 68.2321 208.778 72.8165 208.778 79.2535V102.666H204.324V81.0427C204.324 75.6042 204.094 71.8587 203.604 69.9063L203.602 69.901C202.759 66.6235 201.205 64.05 198.862 62.3054C196.52 60.5609 193.506 59.7254 189.912 59.7254C185.741 59.7254 181.995 61.0239 178.708 63.6031C175.441 66.1676 173.272 69.3529 172.229 73.1494L172.227 73.1554C171.571 75.6103 171.269 80.0088 171.269 86.2668V102.676H166.815V40.3538H164.776V104.589H173.308V86.2668C173.308 79.9938 173.617 75.8204 174.204 73.6244C175.138 70.2272 177.067 67.3856 180.016 65.0712C182.947 62.7707 186.234 61.639 189.912 61.639C193.167 61.639 195.698 62.3917 197.595 63.8046C199.492 65.217 200.853 67.3691 201.62 70.3475C202.047 72.0508 202.286 75.5763 202.286 81.0427V104.58H210.817V79.2535C210.817 72.7547 210.116 67.8477 208.645 64.6296C207.18 61.4248 204.898 58.8661 201.804 56.9636C198.698 55.0536 195.065 54.109 191.206 54.109C187.363 54.109 183.779 54.9402 180.473 56.6375Z" fill="#235B9D"/>
<path fill-rule="evenodd" clip-rule="evenodd" d="M243.305 55.6321C239.756 55.6321 236.491 56.3961 233.499 57.9444C230.499 59.4969 227.731 61.8365 225.202 65.0263L223.368 67.3411V56.857H218.914V102.661H223.368V86.1199C223.368 79.8388 223.67 75.4072 224.325 72.9056L224.328 72.8968C225.371 69.0697 227.539 65.8588 230.807 63.2736C234.093 60.6737 237.84 59.3647 242.01 59.3647C245.614 59.3647 248.637 60.2067 250.99 61.9642C253.346 63.7244 254.88 66.3217 255.672 69.6274C256.183 71.6031 256.423 75.3803 256.423 80.8537V102.651H260.877V79.0501C260.877 72.591 260.172 67.9688 258.87 65.0873C257.561 62.1927 255.541 59.9021 252.786 58.1943C250.041 56.4928 246.834 55.6321 243.305 55.6321ZM232.521 56.252C235.828 54.5403 239.433 53.7031 243.305 53.7031C247.196 53.7031 250.797 54.6557 253.903 56.5807C256.998 58.4994 259.28 61.0892 260.744 64.3288C262.214 67.5815 262.915 72.527 262.915 79.0501V104.58H254.384V80.8537C254.384 75.3402 254.135 71.7904 253.69 70.0793L253.688 70.0705L253.686 70.0617C252.969 67.0636 251.629 64.8993 249.726 63.4782C247.818 62.0528 245.277 61.2937 242.01 61.2937C238.332 61.2937 235.046 62.4346 232.115 64.7535C229.166 67.0863 227.237 69.9502 226.303 73.3742C225.716 75.619 225.406 79.8279 225.406 86.1199V104.59H216.875V54.928H225.406V61.7366C227.588 59.4073 229.958 57.5782 232.521 56.252Z" fill="#235B9D"/>
<path fill-rule="evenodd" clip-rule="evenodd" d="M101.774 52.4902V103.358H93.3402V96.7459C91.0089 99.026 88.4524 100.823 85.6635 102.124C82.1328 103.77 78.2798 104.589 74.1206 104.589C66.7122 104.589 60.36 102.039 55.1195 96.9709C49.8768 91.9011 47.252 85.7148 47.252 78.4793C47.252 71.2325 49.9057 65.2684 55.1849 60.224C60.4665 55.1774 66.8579 52.6392 74.2938 52.6392C78.5774 52.6392 82.4909 53.4971 86.0021 55.2404C89.1315 56.7941 91.9029 59.0282 94.314 61.9275L99.9591 54.2041L101.774 52.4902ZM74.2938 54.5625C67.4092 54.5625 61.5376 56.8903 56.6339 61.5759C51.7279 66.2636 49.289 71.7433 49.289 78.4793C49.289 85.2265 51.716 90.9265 56.5771 95.6272C61.4404 100.33 67.2697 102.665 74.1206 102.665C77.9874 102.665 81.529 101.907 84.7613 100.399C87.9969 98.89 90.9322 96.6356 93.5727 93.6103L95.3772 91.5427V101.434H99.7365V57.8949L94.3643 65.2449L93.5207 64.1336C91.0744 60.9112 88.2466 58.5278 85.0541 56.9427C81.8634 55.3586 78.2806 54.5625 74.2938 54.5625ZM64.341 61.174C67.5552 59.4138 71.0626 58.5342 74.8438 58.5342H75.8623V58.5636C81.3004 58.7772 85.9479 60.7161 89.7494 64.3815C93.7881 68.2661 95.805 73.1194 95.805 78.8543C95.805 82.6194 94.9123 86.0246 93.1085 89.0659C91.3015 92.1126 88.7189 94.5157 85.3869 96.2904L85.3847 96.2915C82.0593 98.0526 78.4967 98.9437 74.803 98.9437C71.1048 98.9437 67.6269 98.0406 64.4071 96.2529C61.1786 94.4604 58.6093 91.949 56.7024 88.7504C54.7976 85.5554 53.8418 82.2203 53.8418 78.6716C53.8418 75.1252 54.7964 71.7613 56.6817 68.5934C58.569 65.422 61.1199 62.9379 64.341 61.174ZM74.1931 60.4672C71.0139 60.5617 68.0759 61.3521 65.3631 62.8377C62.473 64.4204 60.1758 66.6485 58.4576 69.5356C56.7373 72.4263 55.8789 75.4671 55.8789 78.6716C55.8789 81.8739 56.736 84.8858 58.4776 87.807C60.217 90.7247 62.5366 92.9831 65.4396 94.595C68.3513 96.2116 71.4734 97.0203 74.803 97.0203C78.137 97.0203 81.3574 96.219 84.3874 94.6145C87.4103 93.0041 89.7162 90.8491 91.3312 88.1262C92.9495 85.3975 93.768 82.321 93.768 78.8543C93.768 73.5882 91.9352 69.229 88.2949 65.7281L88.2939 65.7272C84.6509 62.2146 80.1897 60.4672 74.8438 60.4672H74.1931Z" fill="#BE1E2D"/>
<path fill-rule="evenodd" clip-rule="evenodd" d="M158.718 52.4902V103.358H150.473V96.7459C148.193 99.026 145.693 100.823 142.966 102.124C139.514 103.77 135.747 104.589 131.68 104.589C124.436 104.589 118.225 102.039 113.101 96.9709C107.975 91.9011 105.408 85.7148 105.408 78.4793C105.408 71.2325 108.003 65.2684 113.165 60.224C118.329 55.1774 124.579 52.6392 131.849 52.6392C136.038 52.6392 139.864 53.4971 143.298 55.2404C146.357 56.7941 149.067 59.0282 151.425 61.9275L156.944 54.2041L158.718 52.4902ZM131.849 54.5625C125.118 54.5625 119.377 56.8903 114.582 61.5759C109.785 66.2636 107.4 71.7433 107.4 78.4793C107.4 85.2265 109.773 90.9265 114.526 95.6272C119.282 100.33 124.981 102.665 131.68 102.665C135.461 102.665 138.924 101.907 142.084 100.399C145.248 98.89 148.118 96.6356 150.7 93.6103L152.464 91.5427V101.434H156.727V57.8949L151.474 65.2449L150.649 64.1336C148.257 60.9112 145.492 58.5278 142.371 56.9427C139.251 55.3586 135.748 54.5625 131.849 54.5625ZM122.118 61.174C125.261 59.4138 128.69 58.5342 132.387 58.5342H133.383V58.5636C138.7 58.7772 143.244 60.7161 146.961 64.3815C150.91 68.2661 152.883 73.1194 152.883 78.8543C152.883 82.6194 152.01 86.0246 150.246 89.0659C148.479 92.1126 145.954 94.5157 142.696 96.2904L142.694 96.2915C139.442 98.0526 135.959 98.9437 132.347 98.9437C128.731 98.9437 125.331 98.0406 122.182 96.2529C119.026 94.4604 116.513 91.949 114.649 88.7504C112.786 85.5554 111.852 82.2203 111.852 78.6716C111.852 75.1252 112.785 71.7613 114.629 68.5934C116.474 65.422 118.968 62.9379 122.118 61.174ZM131.751 60.4672C128.642 60.5617 125.77 61.3521 123.117 62.8377C120.291 64.4204 118.045 66.6485 116.365 69.5356C114.683 72.4263 113.844 75.4671 113.844 78.6716C113.844 81.8739 114.682 84.8858 116.385 87.807C118.085 90.7247 120.353 92.9831 123.192 94.595C126.039 96.2116 129.092 97.0203 132.347 97.0203C135.607 97.0203 138.756 96.219 141.719 94.6145C144.674 93.0042 146.929 90.8491 148.508 88.1262C150.091 85.3975 150.891 82.321 150.891 78.8543C150.891 73.5882 149.099 69.229 145.539 65.7281L145.538 65.7272C141.976 62.2146 137.614 60.4672 132.387 60.4672H131.751Z" fill="#BE1E2D"/>
<path fill-rule="evenodd" clip-rule="evenodd" d="M321.072 52.4902V103.358H312.639V96.7455C310.307 99.0257 307.751 100.823 304.962 102.123C301.431 103.77 297.578 104.589 293.419 104.589C286.011 104.589 279.658 102.038 274.418 96.9705C269.175 91.9005 266.55 85.7139 266.55 78.478C266.55 71.2309 269.204 65.2665 274.483 60.2219C279.765 55.175 286.156 52.6367 293.592 52.6367C297.876 52.6367 301.789 53.4947 305.3 55.238C308.43 56.7918 311.201 59.026 313.612 61.9255L319.258 54.2013L321.072 52.4902ZM293.592 54.5601C286.708 54.5601 280.836 56.888 275.932 61.5738C271.026 66.2617 268.587 71.7418 268.587 78.478C268.587 85.2256 271.014 90.9258 275.875 95.6268C280.739 100.33 286.568 102.665 293.419 102.665C297.286 102.665 300.827 101.907 304.06 100.399C307.295 98.8897 310.231 96.6352 312.871 93.6097L314.676 91.5421V101.434H319.035V57.8926L313.663 65.243L312.819 64.1317C310.373 60.9091 307.545 58.5256 304.352 56.9404C301.162 55.3563 297.579 54.5601 293.592 54.5601ZM283.639 61.1719C286.854 59.4116 290.361 58.532 294.142 58.532H295.161V58.5614C300.599 58.775 305.246 60.714 309.048 64.3796C313.086 68.2643 315.103 73.1179 315.103 78.8531C315.103 82.6184 314.211 86.0237 312.407 89.0652C310.6 92.112 308.017 94.5152 304.685 96.29L304.683 96.2911C301.358 98.0523 297.795 98.9434 294.101 98.9434C290.403 98.9434 286.925 98.0403 283.705 96.2525C280.477 94.4599 277.908 91.9483 276.001 88.7497C274.096 85.5545 273.14 82.2192 273.14 78.6704C273.14 75.1238 274.095 71.7597 275.98 68.5917C277.867 65.4201 280.418 62.9359 283.639 61.1719ZM293.491 60.4651C290.312 60.5595 287.374 61.35 284.661 62.8357C281.771 64.4185 279.474 66.6467 277.756 69.5339C276.036 72.4247 275.177 75.4657 275.177 78.6704C275.177 81.8728 276.034 84.8848 277.776 87.8062C279.515 90.7241 281.835 92.9826 284.738 94.5945C287.65 96.2112 290.772 97.02 294.101 97.02C297.435 97.02 300.656 96.2186 303.686 94.614C306.709 93.0036 309.014 90.8485 310.629 88.1254C312.248 85.3966 313.066 82.3199 313.066 78.8531C313.066 73.5867 311.234 69.2273 307.593 65.7262L307.592 65.7253C303.949 62.2125 299.488 60.4651 294.142 60.4651H293.491Z" fill="#BE1E2D"/>
<path d="M166.894 35.5293H10.2913L6.35132 40.3757H166.8M171.134 35.5293H325L321.06 40.3757H171.27" stroke="#235B9D" stroke-width="1.5"/>
<path fill-rule="evenodd" clip-rule="evenodd" d="M313.344 12.2583C312.25 11.5945 310.933 11.2625 309.393 11.2625C307.914 11.2625 306.587 11.5945 305.413 12.2583C304.238 12.9222 303.316 13.8692 302.647 15.0993C301.979 16.3099 301.644 17.7352 301.644 19.3754C301.644 20.996 301.979 22.4214 302.647 23.6515C303.316 24.862 304.238 25.7993 305.413 26.4631C306.587 27.127 307.914 27.4589 309.393 27.4589C310.933 27.4589 312.25 27.1368 313.344 26.4924C314.458 25.8286 315.309 24.8816 315.896 23.6515H319.208C318.998 24.1707 318.755 24.6588 318.479 25.1159C317.717 26.3777 316.704 27.4028 315.44 28.1911C313.718 29.2455 311.703 29.7727 309.393 29.7727C307.428 29.7727 305.635 29.3334 304.015 28.4547C302.414 27.5566 301.148 26.3167 300.216 24.7351C299.284 23.1536 298.818 21.367 298.818 19.3754C298.818 17.3838 299.284 15.5972 300.216 14.0156C301.148 12.4146 302.414 11.1649 304.015 10.2667C305.635 9.36858 307.428 8.91949 309.393 8.91949C311.703 8.91949 313.718 9.45644 315.44 10.5303C316.709 11.3215 317.725 12.3563 318.487 13.6349C318.76 14.0919 319 14.58 319.208 15.0993H315.896C315.309 13.8692 314.458 12.9222 313.344 12.2583ZM298.893 13.2964C297.82 15.1179 297.299 17.1566 297.299 19.3754C297.299 21.5958 297.821 23.6357 298.895 25.4583C299.957 27.2604 301.413 28.6893 303.25 29.7202L303.26 29.7257L303.27 29.7311C305.131 30.7401 307.183 31.2371 309.393 31.2371C311.952 31.2371 314.258 30.6497 316.255 29.4272L316.266 29.4206C318.272 28.1693 319.725 26.4042 320.624 24.1836L321.432 22.1871H314.923L314.516 23.0391C314.045 24.0264 313.388 24.7437 312.548 25.245C311.737 25.7216 310.708 25.9945 309.393 25.9945C308.161 25.9945 307.103 25.7208 306.181 25.1998C305.261 24.68 304.533 23.9484 303.991 22.9681C303.455 21.9809 303.164 20.7971 303.164 19.3754C303.164 17.9284 303.458 16.7483 303.989 15.7874L303.993 15.7788C304.538 14.7769 305.266 14.0387 306.181 13.5217C307.103 13.0007 308.161 12.727 309.393 12.727C310.702 12.727 311.725 13.0069 312.534 13.4976L312.545 13.504C313.386 14.0053 314.044 14.7232 314.516 15.7116L314.923 16.5637H321.424L320.626 14.5718C319.729 12.3326 318.276 10.5546 316.266 9.30087C314.268 8.05483 311.958 7.45508 309.393 7.45508C307.177 7.45508 305.12 7.96475 303.257 8.99722L303.25 9.00124C301.409 10.0343 299.953 11.4755 298.893 13.2964Z" fill="#235B9D"/>
<path fill-rule="evenodd" clip-rule="evenodd" d="M294.499 7.7207V31.0634H288.695V7.7207H294.499ZM292.98 9.18511H290.215V29.599H292.98V9.18511Z" fill="#235B9D"/>
<path fill-rule="evenodd" clip-rule="evenodd" d="M284.863 31.0615H279.76L270.976 18.2227V31.0615H265.172V7.68945H270.274L279.059 20.5062V7.68945H284.863V31.0615ZM280.579 25.3795L269.457 9.15386H266.691V29.597H269.457V13.3421L280.579 29.597H283.344V9.15386H280.579V25.3795Z" fill="#235B9D"/>
<path fill-rule="evenodd" clip-rule="evenodd" d="M253.571 9.30035L261.198 29.5971H258.281L256.579 25.0574H247.341L245.64 29.5971H242.722L250.38 9.30035H253.571ZM251.96 12.5806L255.789 22.8901H248.131L251.96 12.5806ZM251.96 16.9259L250.289 21.4257H253.631L251.96 16.9259ZM248.408 26.5218L246.706 31.0615H240.553L249.316 7.83594H254.636L263.364 31.0615H257.214L255.513 26.5218H248.408Z" fill="#235B9D"/>
<path fill-rule="evenodd" clip-rule="evenodd" d="M238.698 7.7207V31.0634H232.894V21.8083H225.145V31.0634H219.341V7.7207H225.145V16.6829H232.894V7.7207H238.698ZM234.413 18.1473H223.626V9.18511H220.861V29.599H223.626V20.3439H234.413V29.599H237.179V9.18511H234.413V18.1473Z" fill="#235B9D"/>
<path fill-rule="evenodd" clip-rule="evenodd" d="M198.027 15.0993C197.358 16.3099 197.024 17.7352 197.024 19.3754C197.024 20.996 197.358 22.4214 198.027 23.6515C198.695 24.862 199.617 25.7993 200.792 26.4631C201.967 27.127 203.294 27.4589 204.773 27.4589C206.312 27.4589 207.629 27.1368 208.723 26.4924C209.837 25.8286 210.688 24.8816 211.276 23.6515H214.588C214.378 24.1707 214.135 24.6588 213.859 25.1159C213.097 26.3777 212.084 27.4028 210.82 28.1911C209.098 29.2455 207.082 29.7727 204.773 29.7727C202.808 29.7727 201.015 29.3334 199.394 28.4547C197.794 27.5566 196.528 26.3167 195.596 24.7351C194.664 23.1536 194.198 21.367 194.198 19.3754C194.198 17.3838 194.664 15.5972 195.596 14.0156C196.528 12.4146 197.794 11.1649 199.394 10.2667C201.015 9.36857 202.808 8.91949 204.773 8.91949C207.082 8.91949 209.098 9.45644 210.82 10.5303C212.088 11.3215 213.104 12.3563 213.867 13.6349C214.139 14.0919 214.38 14.58 214.588 15.0993H211.276C210.688 13.8692 209.837 12.9222 208.723 12.2583C207.629 11.5945 206.312 11.2625 204.773 11.2625C203.294 11.2625 201.967 11.5945 200.792 12.2583C199.617 12.9222 198.695 13.8692 198.027 15.0993ZM194.273 13.2958C195.333 11.4751 196.789 10.0342 198.63 9.00124L198.637 8.99722C200.5 7.96473 202.556 7.45508 204.773 7.45508C207.337 7.45508 209.647 8.05483 211.645 9.30087C213.655 10.5546 215.108 12.3326 216.005 14.5718L216.803 16.5637H210.302L209.895 15.7116C209.423 14.7232 208.765 14.0053 207.924 13.504L207.913 13.4976C207.105 13.0069 206.081 12.727 204.773 12.727C203.54 12.727 202.482 13.0007 201.56 13.5217C200.645 14.0387 199.917 14.7769 199.373 15.7788L199.368 15.7874C198.837 16.7483 198.543 17.9284 198.543 19.3754C198.543 20.7969 198.835 21.9806 199.37 22.9677C199.913 23.9482 200.64 24.68 201.56 25.1998C202.482 25.7208 203.54 25.9945 204.773 25.9945C206.087 25.9945 207.117 25.7215 207.927 25.2448C208.767 24.7436 209.424 24.0263 209.895 23.0391L210.302 22.1871H216.811L216.003 24.1836C215.105 26.4042 213.651 28.1693 211.645 29.4206L211.635 29.4272C209.638 30.6498 207.331 31.2371 204.773 31.2371C202.562 31.2371 200.51 30.7401 198.649 29.7311L198.639 29.7257L198.63 29.7202C196.793 28.6893 195.336 27.2604 194.274 25.4583C193.201 23.6357 192.678 21.5958 192.678 19.3754C192.678 17.1563 193.2 15.1175 194.273 13.2958Z" fill="#235B9D"/>
<path fill-rule="evenodd" clip-rule="evenodd" d="M189.497 16.7102V21.8357H181.778V25.936H190.408V31.0615H175.974V7.68945H190.408V12.8149H181.778V16.7102H189.497ZM180.259 11.3505H188.889V9.15386H177.494V29.597H188.889V27.4004H180.259V20.3713H187.977V18.1746H180.259V11.3505Z" fill="#235B9D"/>
</svg>
