<svg width="328" height="86" viewBox="0 0 328 86" fill="none" xmlns="http://www.w3.org/2000/svg">
<path fill-rule="evenodd" clip-rule="evenodd" d="M5.28809 32H14.2701L30.2341 66.6673L46.006 32H55.0272L31.4617 83.48H28.9993L5.28809 32ZM8.41121 34L30.2287 81.3685L51.9121 34H47.2933L30.2452 71.4727L12.9892 34H8.41121Z" fill="#235B9D"/>
<path d="M168.311 8.78848H167.75V13.755H168.704H169.75V10.1802L174.13 5.25696V13.755H176.13V0L168.311 8.78848Z" fill="#235B9D"/>
<path d="M183.15 34.7748C180.629 36.1537 178.292 38.0566 176.13 40.4807V17.7559H174.13V46.2443L175.926 43.8767C178.438 40.5669 181.165 38.1398 184.11 36.5295C187.046 34.9235 190.23 34.1322 193.68 34.1322C197.113 34.1322 200.289 35.025 202.982 36.7887C205.686 38.5603 207.668 40.926 208.951 43.9165C210.228 46.8931 210.92 51.6845 210.92 58.4122V82.8822H206.55V60.2822C206.55 54.5981 206.324 50.6835 205.843 48.6429L205.842 48.6374C205.014 45.2119 203.49 42.5221 201.191 40.6988C198.893 38.8755 195.936 38.0022 192.41 38.0022C188.318 38.0022 184.643 39.3594 181.418 42.055C178.212 44.7353 176.085 48.0644 175.061 52.0324L175.06 52.0387C174.416 54.6045 174.12 59.2016 174.12 65.7422V82.8922H169.75V17.7559H167.75V84.8922H176.12V65.7422C176.12 59.1859 176.423 54.824 176.999 52.5289C177.915 48.9782 179.808 46.0084 182.701 43.5894C185.577 41.185 188.802 40.0022 192.41 40.0022C195.604 40.0022 198.087 40.7889 199.948 42.2656C201.809 43.7418 203.144 45.9911 203.897 49.104C204.316 50.8843 204.55 54.5689 204.55 60.2822V84.8822H212.92V58.4122C212.92 51.6199 212.232 46.4913 210.789 43.1279C209.352 39.7784 207.113 37.1041 204.078 35.1157C201.03 33.1194 197.466 32.1322 193.68 32.1322C189.909 32.1322 186.393 33.0009 183.15 34.7748Z" fill="#235B9D"/>
<path fill-rule="evenodd" clip-rule="evenodd" d="M244.74 34C241.258 34 238.055 34.7921 235.119 36.3974C232.176 38.007 229.46 40.4328 226.98 43.74L225.18 46.14V35.27H220.81V82.76H225.18V65.61C225.18 59.0978 225.476 54.503 226.119 51.9093L226.121 51.9002C227.145 47.9322 229.272 44.6031 232.478 41.9228C235.702 39.2272 239.378 37.87 243.47 37.87C247.005 37.87 249.971 38.743 252.279 40.5651C254.591 42.3901 256.096 45.0831 256.873 48.5104C257.375 50.5589 257.61 54.4751 257.61 60.15V82.75H261.98V58.28C261.98 51.5832 261.288 46.7908 260.01 43.8032C258.727 40.802 256.745 38.4272 254.042 36.6565C251.348 34.8923 248.202 34 244.74 34ZM234.16 34.6426C237.405 32.8679 240.941 32 244.74 32C248.557 32 252.091 32.9877 255.138 34.9835C258.174 36.9728 260.413 39.658 261.849 43.0168C263.291 46.3892 263.98 51.5168 263.98 58.28V84.75H255.61V60.15C255.61 54.4335 255.365 50.7531 254.929 48.9789L254.926 48.9699L254.924 48.9607C254.221 45.8523 252.906 43.6083 251.04 42.1349C249.168 40.657 246.674 39.87 243.47 39.87C239.861 39.87 236.637 41.0528 233.761 43.4572C230.868 45.8758 228.976 48.8452 228.059 52.3952C227.483 54.7226 227.18 59.0864 227.18 65.61V84.76H218.81V33.27H227.18V40.3292C229.32 37.9141 231.645 36.0178 234.16 34.6426Z" fill="#235B9D"/>
<path fill-rule="evenodd" clip-rule="evenodd" d="M104.99 31V83.8949H96.7097V77.0195C94.4208 79.3904 91.9108 81.2588 89.1726 82.6114C85.7061 84.3238 81.9233 85.1749 77.8397 85.1749C70.5661 85.1749 64.3294 82.5231 59.1842 77.2535C54.0369 71.9816 51.4597 65.5488 51.4597 58.0249C51.4597 50.4893 54.0652 44.2874 59.2484 39.042C64.4339 33.7943 70.7091 31.1549 78.0097 31.1549C82.2155 31.1549 86.0577 32.047 89.5051 33.8598C92.5775 35.4754 95.2986 37.7985 97.6658 40.8134L103.208 32.7821L104.99 31ZM78.0097 33.1549C71.2503 33.1549 65.4855 35.5755 60.671 40.4477C55.8543 45.3223 53.4597 51.0205 53.4597 58.0249C53.4597 65.041 55.8426 70.9681 60.6152 75.8563C65.3901 80.7466 71.1134 83.1749 77.8397 83.1749C81.6362 83.1749 85.1133 82.3859 88.2868 80.8183C91.4636 79.249 94.3455 76.9048 96.938 73.7589L98.7097 71.6089V81.8949H102.99V36.62L97.7152 44.263L96.8869 43.1074C94.4852 39.7566 91.7088 37.2782 88.5743 35.63C85.4417 33.9827 81.924 33.1549 78.0097 33.1549ZM68.238 40.0298C71.3937 38.1995 74.8373 37.2849 78.5497 37.2849H79.5497V37.3155C84.8889 37.5375 89.4519 39.5537 93.1842 43.3652C97.1495 47.4046 99.1297 52.4514 99.1297 58.4149C99.1297 62.33 98.2533 65.8709 96.4822 69.0335C94.7081 72.2016 92.1725 74.7004 88.901 76.5458L88.8989 76.547C85.634 78.3783 82.1362 79.3049 78.5097 79.3049C74.8788 79.3049 71.4641 78.3658 68.3028 76.5069C65.1331 74.6429 62.6105 72.0314 60.7383 68.7054C58.8682 65.383 57.9297 61.915 57.9297 58.2249C57.9297 54.5371 58.8669 51.0391 60.7179 47.745C62.571 44.4472 65.0755 41.8641 68.238 40.0298ZM77.9109 39.2949C74.7895 39.3931 71.9049 40.2151 69.2414 41.7599C66.404 43.4056 64.1485 45.7225 62.4615 48.7247C60.7725 51.7306 59.9297 54.8926 59.9297 58.2249C59.9297 61.5547 60.7713 64.6867 62.4811 67.7243C64.189 70.7584 66.4664 73.1068 69.3166 74.7829C72.1753 76.4639 75.2407 77.3049 78.5097 77.3049C81.783 77.3049 84.9449 76.4716 87.9197 74.8031C90.8877 73.1286 93.1516 70.8877 94.7372 68.0563C96.3262 65.2188 97.1297 62.0197 97.1297 58.4149C97.1297 52.9388 95.3303 48.4059 91.7561 44.7654L91.7552 44.7645C88.1785 41.1119 83.7984 39.2949 78.5497 39.2949H77.9109Z" fill="#BE1E2D"/>
<path fill-rule="evenodd" clip-rule="evenodd" d="M161.98 31V83.8949H153.7V77.0195C151.411 79.3904 148.901 81.2588 146.163 82.6114C142.696 84.3238 138.913 85.1749 134.83 85.1749C127.556 85.1749 121.319 82.5231 116.174 77.2535C111.027 71.9816 108.45 65.5488 108.45 58.0249C108.45 50.4893 111.055 44.2874 116.238 39.042C121.424 33.7943 127.699 31.1549 135 31.1549C139.205 31.1549 143.048 32.047 146.495 33.8598C149.568 35.4754 152.289 37.7985 154.656 40.8134L160.198 32.7821L161.98 31ZM135 33.1549C128.24 33.1549 122.476 35.5755 117.661 40.4477C112.844 45.3223 110.45 51.0205 110.45 58.0249C110.45 65.041 112.833 70.9681 117.605 75.8563C122.38 80.7466 128.103 83.1749 134.83 83.1749C138.626 83.1749 142.103 82.3859 145.277 80.8183C148.454 79.249 151.336 76.9048 153.928 73.7589L155.7 71.6089V81.8949H159.98V36.62L154.705 44.263L153.877 43.1074C151.475 39.7566 148.699 37.2782 145.564 35.63C142.432 33.9827 138.914 33.1549 135 33.1549ZM125.228 40.0298C128.384 38.1995 131.827 37.2849 135.54 37.2849H136.54V37.3155C141.879 37.5375 146.442 39.5537 150.174 43.3652C154.139 47.4046 156.12 52.4514 156.12 58.4149C156.12 62.33 155.243 65.8709 153.472 69.0335C151.698 72.2016 149.162 74.7004 145.891 76.5458L145.889 76.547C142.624 78.3783 139.126 79.3049 135.5 79.3049C131.869 79.3049 128.454 78.3658 125.293 76.5069C122.123 74.6429 119.6 72.0314 117.728 68.7054C115.858 65.383 114.92 61.915 114.92 58.2249C114.92 54.5371 115.857 51.0391 117.708 47.745C119.561 44.4472 122.065 41.8641 125.228 40.0298ZM134.901 39.2949C131.78 39.3931 128.895 40.2151 126.231 41.7599C123.394 43.4056 121.138 45.7225 119.452 48.7247C117.763 51.7306 116.92 54.8926 116.92 58.2249C116.92 61.5547 117.761 64.6867 119.471 67.7243C121.179 70.7584 123.456 73.1068 126.307 74.7829C129.165 76.4639 132.231 77.3049 135.5 77.3049C138.773 77.3049 141.935 76.4716 144.91 74.8031C147.878 73.1286 150.142 70.8877 151.727 68.0563C153.316 65.2188 154.12 62.0197 154.12 58.4149C154.12 52.9388 152.32 48.4059 148.746 44.7654L148.745 44.7645C145.169 41.1119 140.788 39.2949 135.54 39.2949H134.901Z" fill="#BE1E2D"/>
<path fill-rule="evenodd" clip-rule="evenodd" d="M321.7 31V83.8923H313.42V77.0169C311.131 79.3878 308.621 81.2562 305.883 82.6088C302.416 84.3212 298.633 85.1723 294.55 85.1723C287.276 85.1723 281.04 82.5205 275.894 77.2509C270.747 71.979 268.17 65.5462 268.17 58.0223C268.17 50.4867 270.775 44.2848 275.959 39.0394C281.144 33.7917 287.419 31.1523 294.72 31.1523C298.926 31.1523 302.768 32.0444 306.215 33.8572C309.288 35.4727 312.009 37.7959 314.376 40.8108L319.919 32.7792L321.7 31ZM294.72 33.1523C287.961 33.1523 282.196 35.5729 277.381 40.4451C272.564 45.3197 270.17 51.0179 270.17 58.0223C270.17 65.0384 272.553 70.9655 277.325 75.8537C282.1 80.744 287.824 83.1723 294.55 83.1723C298.346 83.1723 301.824 82.3833 304.997 80.8157C308.174 79.2464 311.056 76.9022 313.648 73.7563L315.42 71.6063V81.8923H319.7V36.6174L314.425 44.2604L313.597 43.1048C311.195 39.754 308.419 37.2756 305.284 35.6274C302.152 33.9801 298.634 33.1523 294.72 33.1523ZM284.948 40.0272C288.104 38.1969 291.548 37.2823 295.26 37.2823H296.26V37.3129C301.599 37.5349 306.162 39.5511 309.894 43.3626C313.86 47.402 315.84 52.4488 315.84 58.4123C315.84 62.3274 314.963 65.8683 313.192 69.0309C311.418 72.199 308.883 74.6978 305.611 76.5432L305.609 76.5444C302.344 78.3757 298.846 79.3023 295.22 79.3023C291.589 79.3023 288.174 78.3632 285.013 76.5043C281.843 74.6403 279.321 72.0288 277.448 68.7028C275.578 65.3804 274.64 61.9124 274.64 58.2223C274.64 54.5345 275.577 51.0365 277.428 47.7424C279.281 44.4446 281.786 41.8615 284.948 40.0272ZM294.621 39.2923C291.5 39.3905 288.615 40.2125 285.952 41.7573C283.114 43.403 280.859 45.7199 279.172 48.7221C277.483 51.728 276.64 54.89 276.64 58.2223C276.64 61.5521 277.481 64.6841 279.191 67.7217C280.899 70.7558 283.177 73.1042 286.027 74.7803C288.885 76.4613 291.951 77.3023 295.22 77.3023C298.493 77.3023 301.655 76.469 304.63 74.8005C307.598 73.126 309.862 70.8851 311.447 68.0537C313.036 65.2162 313.84 62.0171 313.84 58.4123C313.84 52.9362 312.04 48.4033 308.466 44.7628L308.465 44.7619C304.889 41.1093 300.509 39.2923 295.26 39.2923H294.621Z" fill="#BE1E2D"/>
<path d="M167.8 12.7559H6L2 18.7559H167.8M176 12.7559H325.5L321.5 18.7559H175.5" stroke="#235B9D" stroke-width="2"/>
</svg>
